<mxfile host="65bd71144e">
    <diagram id="vu5aGmH0o27bVY2iEsoV" name="Page-1">
        <mxGraphModel dx="917" dy="494" grid="1" gridSize="10" guides="1" tooltips="1" connect="1" arrows="1" fold="1" page="1" pageScale="1" pageWidth="850" pageHeight="1100" math="0" shadow="0">
            <root>
                <mxCell id="0"/>
                <mxCell id="1" parent="0"/>
                <mxCell id="2" value="" style="rounded=0;whiteSpace=wrap;html=1;" parent="1" vertex="1">
                    <mxGeometry x="40" y="40" width="520" height="440" as="geometry"/>
                </mxCell>
                <mxCell id="8" value="Chatting as $NAME" style="text;strokeColor=none;fillColor=none;html=1;fontSize=24;fontStyle=1;verticalAlign=middle;align=left;" parent="1" vertex="1">
                    <mxGeometry x="50" y="40" width="260" height="40" as="geometry"/>
                </mxCell>
                <mxCell id="10" value="List of Clients" style="rounded=0;whiteSpace=wrap;html=1;" parent="1" vertex="1">
                    <mxGeometry x="70" y="100" width="120" height="310" as="geometry"/>
                </mxCell>
                <mxCell id="12" value="Messages" style="rounded=0;whiteSpace=wrap;html=1;" parent="1" vertex="1">
                    <mxGeometry x="210" y="100" width="320" height="200" as="geometry"/>
                </mxCell>
                <mxCell id="13" value="Refresh" style="rounded=1;whiteSpace=wrap;html=1;" parent="1" vertex="1">
                    <mxGeometry x="70" y="420" width="120" height="40" as="geometry"/>
                </mxCell>
                <mxCell id="15" value="Disconnect" style="rounded=1;whiteSpace=wrap;html=1;" parent="1" vertex="1">
                    <mxGeometry x="410" y="50" width="120" height="40" as="geometry"/>
                </mxCell>
                <mxCell id="17" value="Text Input" style="rounded=0;whiteSpace=wrap;html=1;" parent="1" vertex="1">
                    <mxGeometry x="210" y="340" width="320" height="70" as="geometry"/>
                </mxCell>
                <mxCell id="18" value="Send" style="rounded=1;whiteSpace=wrap;html=1;" parent="1" vertex="1">
                    <mxGeometry x="410" y="420" width="120" height="40" as="geometry"/>
                </mxCell>
                <mxCell id="19" value="Error Message" style="text;html=1;strokeColor=none;fillColor=none;align=left;verticalAlign=middle;whiteSpace=wrap;rounded=0;" vertex="1" parent="1">
                    <mxGeometry x="210" y="310" width="320" height="20" as="geometry"/>
                </mxCell>
            </root>
        </mxGraphModel>
    </diagram>
</mxfile>